HIERARCHY
ROOT root
{
    OFFSET 0.000000 0.000000 0.000000
    CHANNELS 6 Xposition Yposition Zposition Zrotation Xrotation Yrotation
    JOINT spine_01
    {
        OFFSET -0.000000 8.390369 0.000000
        CHANNELS 3 Zrotation Xrotation Yrotation
        JOINT spine_02
        {
            OFFSET -0.000000 20.482714 0.000000
            CHANNELS 3 Zrotation Xrotation Yrotation
            JOINT neck
            {
                OFFSET -0.000000 22.529144 0.000000
                CHANNELS 3 Zrotation Xrotation Yrotation
                JOINT head
                {
                    OFFSET -0.000000 15.859845 2.046431
                    CHANNELS 3 Zrotation Xrotation Yrotation
                    End Site
                    {
                        OFFSET -0.000000 20.464315 0.000000
                    }
                }
            }
            JOINT clavicle_l
            {
                OFFSET 4.164947 16.837574 -0.672558
                CHANNELS 3 Zrotation Xrotation Yrotation
                JOINT upperarm_l
                {
                    OFFSET 17.476009 0.000000 0.000000
                    CHANNELS 3 Zrotation Xrotation Yrotation
                    JOINT lowerarm_l
                    {
                        OFFSET 26.105320 0.000000 0.000000
                        CHANNELS 3 Zrotation Xrotation Yrotation
                        JOINT hand_l
                        {
                            OFFSET 26.966202 0.000000 0.000000
                            CHANNELS 3 Zrotation Xrotation Yrotation
                            End Site
                            {
                                OFFSET 15.348238 0.000000 0.000000
                            }
                        }
                    }
                }
            }
            JOINT clavicle_r
            {
                OFFSET -4.003590 16.837574 -0.672558
                CHANNELS 3 Zrotation Xrotation Yrotation
                JOINT upperarm_r
                {
                    OFFSET -17.476009 0.000000 0.000000
                    CHANNELS 3 Zrotation Xrotation Yrotation
                    JOINT lowerarm_r
                    {
                        OFFSET -26.105320 0.000000 0.000000
                        CHANNELS 3 Zrotation Xrotation Yrotation
                        JOINT hand_r
                        {
                            OFFSET -26.966202 0.000000 0.000000
                            CHANNELS 3 Zrotation Xrotation Yrotation
                            End Site
                            {
                                OFFSET -15.348238 0.000000 0.000000
                            }
                        }
                    }
                }
            }
        }
    }
    JOINT tigh_l
    {
        OFFSET 10.232158 0.000000 0.000000
        CHANNELS 3 Zrotation Xrotation Yrotation
        JOINT calf_l
        {
            OFFSET -0.000000 -49.965782 0.000000
            CHANNELS 3 Zrotation Xrotation Yrotation
            JOINT foot_l
            {
                OFFSET -0.000000 -44.072388 0.000000
                CHANNELS 3 Zrotation Xrotation Yrotation
                JOINT ball_l
                {
                    OFFSET -0.000000 -6.650902 15.348238
                    CHANNELS 3 Zrotation Xrotation Yrotation
                    End Site
                    {
                        OFFSET -0.000000 0.000000 4.092863
                    }
                }
            }
        }
    }
    JOINT tigh_r
    {
        OFFSET -10.232158 0.000000 0.000000
        CHANNELS 3 Zrotation Xrotation Yrotation
        JOINT calf_r
        {
            OFFSET -0.000000 -49.965782 0.000000
            CHANNELS 3 Zrotation Xrotation Yrotation
            JOINT foot_r
            {
                OFFSET -0.000000 -44.072388 0.000000
                CHANNELS 3 Zrotation Xrotation Yrotation
                JOINT ball_r
                {
                    OFFSET -0.000000 -6.650902 15.348238
                    CHANNELS 3 Zrotation Xrotation Yrotation
                    End Site
                    {
                        OFFSET -0.000000 0.000000 4.092863
                    }
                }
            }
        }
    }
}
MOTION
Frames:    5
Frame Time:    0.002778
10.094681    95.208214    3.488672    18.789707    1.036141    92.660866    -1.897565    1.409553    1.675030    -1.490716    -2.093648    0.523442    -1.840281    13.390023    -9.207249    14.986259    24.644983    -15.029855    22.027023    -11.484701    -16.038198    3.187520    -3.964560    -62.736462    7.930375    -25.625170    -70.570595    7.968066    -21.380653    -14.195301    -7.895908    -11.911259    24.615454    2.911777    7.101868    42.522350    -6.353704    -31.308329    57.581158    5.981062    -28.379757    -2.250599    14.708880    3.475058    9.778723    -4.614027    35.318558    12.840442    -9.527264    -18.572752    -2.847499    0.000000    0.000000    0.000000    -10.167719    2.572193    -14.795464    0.973791    40.859688    -5.355105    14.123221    -21.809177    18.547115    0.000000    0.000000    0.000000    
10.083977    94.968414    3.529349    19.055662    0.809198    92.333015    -1.842506    1.698011    1.589677    -1.384934    -2.112101    0.495350    -2.113857    13.089120    -8.771541    15.296980    24.871035    -14.780807    22.022997    -11.564798    -15.862663    3.484242    -3.966082    -63.137184    9.288730    -26.653395    -67.951172    6.830431    -21.739288    -14.801750    -8.065928    -11.695024    24.563938    2.804607    7.029549    42.709709    -6.436163    -30.354929    57.752422    5.600682    -27.337774    -2.196314    14.885502    3.499347    9.607210    -4.697782    35.919228    13.315156    -9.065496    -19.274494    -2.645842    0.000000    0.000000    0.000000    -10.119328    2.326086    -14.938476    0.857667    41.778591    -6.656711    14.422896    -21.641478    20.123135    0.000000    0.000000    0.000000    
10.083977    94.968414    3.529349    19.055662    0.809198    92.333015    -1.842506    1.698011    1.589677    -1.384934    -2.112101    0.495350    -2.113857    13.089120    -8.771541    15.296980    24.871035    -14.780807    22.022997    -11.564798    -15.862663    3.484242    -3.966082    -63.137184    9.288730    -26.653395    -67.951172    6.830431    -21.739288    -14.801750    -8.065928    -11.695024    24.563938    2.804607    7.029549    42.709709    -6.436163    -30.354929    57.752422    5.600682    -27.337774    -2.196314    14.885502    3.499347    9.607210    -4.697782    35.919228    13.315156    -9.065496    -19.274494    -2.645842    0.000000    0.000000    0.000000    -10.119328    2.326086    -14.938476    0.857667    41.778591    -6.656711    14.422896    -21.641478    20.123135    0.000000    0.000000    0.000000    
10.083977    94.968414    3.529349    19.055662    0.809198    92.333015    -1.842506    1.698011    1.589677    -1.384934    -2.112101    0.495350    -2.113857    13.089120    -8.771541    15.296980    24.871035    -14.780807    22.022997    -11.564798    -15.862663    3.484242    -3.966082    -63.137184    9.288730    -26.653395    -67.951172    6.830431    -21.739288    -14.801750    -8.065928    -11.695024    24.563938    2.804607    7.029549    42.709709    -6.436163    -30.354929    57.752422    5.600682    -27.337774    -2.196314    14.885502    3.499347    9.607210    -4.697782    35.919228    13.315156    -9.065496    -19.274494    -2.645842    0.000000    0.000000    0.000000    -10.119328    2.326086    -14.938476    0.857667    41.778591    -6.656711    14.422896    -21.641478    20.123135    0.000000    0.000000    0.000000    
10.063323    94.725769    3.531314    19.048000    0.753439    91.956360    -2.013316    1.714515    1.520409    -1.231997    -2.250901    0.472629    -1.942834    13.462257    -9.296482    14.664540    24.217556    -14.985065    22.150667    -11.599988    -15.911122    3.041256    -4.236561    -63.106461    8.057547    -28.005327    -67.237320    5.916203    -23.839117    -14.142441    -7.906272    -11.680062    24.815712    2.553609    7.338624    42.569923    -6.218116    -29.780621    58.321201    5.391185    -26.824594    -2.429948    14.934783    3.143733    9.578396    -4.877609    36.859722    14.120681    -8.898220    -19.514568    -2.902043    0.000000    0.000000    0.000000    -10.258666    1.895855    -14.765404    0.943164    42.529335    -6.490822    14.334306    -22.147436    19.968676    0.000000    0.000000    0.000000    
